<mxfile host="app.diagrams.net" agent="Mozilla/5.0 (Macintosh; Intel Mac OS X 10_15_7) AppleWebKit/605.1.15 (KHTML, like Gecko) Version/18.1.1 Safari/605.1.15" version="25.0.3">
  <diagram name="Seite-1" id="t4hak22wCXQW6pz-v2GZ">
    <mxGraphModel dx="984" dy="666" grid="1" gridSize="10" guides="1" tooltips="1" connect="1" arrows="1" fold="1" page="1" pageScale="1" pageWidth="827" pageHeight="1169" math="0" shadow="0">
      <root>
        <mxCell id="0" />
        <mxCell id="1" parent="0" />
        <mxCell id="Qs3f1plYn783Y-EwiYJO-93" value="" style="rounded=0;whiteSpace=wrap;html=1;" parent="1" vertex="1">
          <mxGeometry x="30" y="40" width="730" height="580" as="geometry" />
        </mxCell>
        <mxCell id="Qs3f1plYn783Y-EwiYJO-1" value="UI" style="swimlane;fontStyle=0;childLayout=stackLayout;horizontal=1;startSize=30;horizontalStack=0;resizeParent=1;resizeParentMax=0;resizeLast=0;collapsible=1;marginBottom=0;whiteSpace=wrap;html=1;" parent="1" vertex="1">
          <mxGeometry x="350" y="167" width="140" height="120" as="geometry" />
        </mxCell>
        <mxCell id="Qs3f1plYn783Y-EwiYJO-2" value="parameterNode" style="text;strokeColor=none;fillColor=none;align=left;verticalAlign=middle;spacingLeft=4;spacingRight=4;overflow=hidden;points=[[0,0.5],[1,0.5]];portConstraint=eastwest;rotatable=0;whiteSpace=wrap;html=1;" parent="Qs3f1plYn783Y-EwiYJO-1" vertex="1">
          <mxGeometry y="30" width="140" height="30" as="geometry" />
        </mxCell>
        <mxCell id="Qs3f1plYn783Y-EwiYJO-77" value="Procedure" style="text;strokeColor=none;fillColor=none;align=left;verticalAlign=middle;spacingLeft=4;spacingRight=4;overflow=hidden;points=[[0,0.5],[1,0.5]];portConstraint=eastwest;rotatable=0;whiteSpace=wrap;html=1;" parent="Qs3f1plYn783Y-EwiYJO-1" vertex="1">
          <mxGeometry y="60" width="140" height="30" as="geometry" />
        </mxCell>
        <mxCell id="Qs3f1plYn783Y-EwiYJO-3" value="Modus" style="text;strokeColor=none;fillColor=none;align=left;verticalAlign=middle;spacingLeft=4;spacingRight=4;overflow=hidden;points=[[0,0.5],[1,0.5]];portConstraint=eastwest;rotatable=0;whiteSpace=wrap;html=1;" parent="Qs3f1plYn783Y-EwiYJO-1" vertex="1">
          <mxGeometry y="90" width="140" height="30" as="geometry" />
        </mxCell>
        <mxCell id="Qs3f1plYn783Y-EwiYJO-6" value="Informations" style="swimlane;fontStyle=0;childLayout=stackLayout;horizontal=1;startSize=30;horizontalStack=0;resizeParent=1;resizeParentMax=0;resizeLast=0;collapsible=1;marginBottom=0;whiteSpace=wrap;html=1;" parent="1" vertex="1">
          <mxGeometry x="574" y="167" width="140" height="210" as="geometry">
            <mxRectangle x="610" y="140" width="70" height="30" as="alternateBounds" />
          </mxGeometry>
        </mxCell>
        <mxCell id="Qs3f1plYn783Y-EwiYJO-7" value="title" style="text;strokeColor=none;fillColor=none;align=left;verticalAlign=middle;spacingLeft=4;spacingRight=4;overflow=hidden;points=[[0,0.5],[1,0.5]];portConstraint=eastwest;rotatable=0;whiteSpace=wrap;html=1;" parent="Qs3f1plYn783Y-EwiYJO-6" vertex="1">
          <mxGeometry y="30" width="140" height="30" as="geometry" />
        </mxCell>
        <mxCell id="Qs3f1plYn783Y-EwiYJO-26" value="categories" style="text;strokeColor=none;fillColor=none;align=left;verticalAlign=middle;spacingLeft=4;spacingRight=4;overflow=hidden;points=[[0,0.5],[1,0.5]];portConstraint=eastwest;rotatable=0;whiteSpace=wrap;html=1;" parent="Qs3f1plYn783Y-EwiYJO-6" vertex="1">
          <mxGeometry y="60" width="140" height="30" as="geometry" />
        </mxCell>
        <mxCell id="Qs3f1plYn783Y-EwiYJO-27" value="dependencies" style="text;strokeColor=none;fillColor=none;align=left;verticalAlign=middle;spacingLeft=4;spacingRight=4;overflow=hidden;points=[[0,0.5],[1,0.5]];portConstraint=eastwest;rotatable=0;whiteSpace=wrap;html=1;" parent="Qs3f1plYn783Y-EwiYJO-6" vertex="1">
          <mxGeometry y="90" width="140" height="30" as="geometry" />
        </mxCell>
        <mxCell id="Qs3f1plYn783Y-EwiYJO-28" value="contributors" style="text;strokeColor=none;fillColor=none;align=left;verticalAlign=middle;spacingLeft=4;spacingRight=4;overflow=hidden;points=[[0,0.5],[1,0.5]];portConstraint=eastwest;rotatable=0;whiteSpace=wrap;html=1;" parent="Qs3f1plYn783Y-EwiYJO-6" vertex="1">
          <mxGeometry y="120" width="140" height="30" as="geometry" />
        </mxCell>
        <mxCell id="Qs3f1plYn783Y-EwiYJO-8" value="helptext" style="text;strokeColor=none;fillColor=none;align=left;verticalAlign=middle;spacingLeft=4;spacingRight=4;overflow=hidden;points=[[0,0.5],[1,0.5]];portConstraint=eastwest;rotatable=0;whiteSpace=wrap;html=1;" parent="Qs3f1plYn783Y-EwiYJO-6" vertex="1">
          <mxGeometry y="150" width="140" height="30" as="geometry" />
        </mxCell>
        <mxCell id="Qs3f1plYn783Y-EwiYJO-9" value="acknowledgement" style="text;strokeColor=none;fillColor=none;align=left;verticalAlign=middle;spacingLeft=4;spacingRight=4;overflow=hidden;points=[[0,0.5],[1,0.5]];portConstraint=eastwest;rotatable=0;whiteSpace=wrap;html=1;" parent="Qs3f1plYn783Y-EwiYJO-6" vertex="1">
          <mxGeometry y="180" width="140" height="30" as="geometry" />
        </mxCell>
        <mxCell id="Qs3f1plYn783Y-EwiYJO-14" value="Parameter" style="swimlane;fontStyle=0;childLayout=stackLayout;horizontal=1;startSize=30;horizontalStack=0;resizeParent=1;resizeParentMax=0;resizeLast=0;collapsible=1;marginBottom=0;whiteSpace=wrap;html=1;" parent="1" vertex="1">
          <mxGeometry x="50" y="167" width="140" height="210" as="geometry" />
        </mxCell>
        <mxCell id="Qs3f1plYn783Y-EwiYJO-15" value="current Volume" style="text;strokeColor=none;fillColor=none;align=left;verticalAlign=middle;spacingLeft=4;spacingRight=4;overflow=hidden;points=[[0,0.5],[1,0.5]];portConstraint=eastwest;rotatable=0;whiteSpace=wrap;html=1;" parent="Qs3f1plYn783Y-EwiYJO-14" vertex="1">
          <mxGeometry y="30" width="140" height="30" as="geometry" />
        </mxCell>
        <mxCell id="Qs3f1plYn783Y-EwiYJO-31" value="selectedAlgorithm" style="text;strokeColor=none;fillColor=none;align=left;verticalAlign=middle;spacingLeft=4;spacingRight=4;overflow=hidden;points=[[0,0.5],[1,0.5]];portConstraint=eastwest;rotatable=0;whiteSpace=wrap;html=1;" parent="Qs3f1plYn783Y-EwiYJO-14" vertex="1">
          <mxGeometry y="60" width="140" height="30" as="geometry" />
        </mxCell>
        <mxCell id="Qs3f1plYn783Y-EwiYJO-16" value="runAsBatch" style="text;strokeColor=none;fillColor=none;align=left;verticalAlign=middle;spacingLeft=4;spacingRight=4;overflow=hidden;points=[[0,0.5],[1,0.5]];portConstraint=eastwest;rotatable=0;whiteSpace=wrap;html=1;" parent="Qs3f1plYn783Y-EwiYJO-14" vertex="1">
          <mxGeometry y="90" width="140" height="30" as="geometry" />
        </mxCell>
        <mxCell id="Qs3f1plYn783Y-EwiYJO-30" value="runAsSingle" style="text;strokeColor=none;fillColor=none;align=left;verticalAlign=middle;spacingLeft=4;spacingRight=4;overflow=hidden;points=[[0,0.5],[1,0.5]];portConstraint=eastwest;rotatable=0;whiteSpace=wrap;html=1;" parent="Qs3f1plYn783Y-EwiYJO-14" vertex="1">
          <mxGeometry y="120" width="140" height="30" as="geometry" />
        </mxCell>
        <mxCell id="Qs3f1plYn783Y-EwiYJO-29" value="sourcePath" style="text;strokeColor=none;fillColor=none;align=left;verticalAlign=middle;spacingLeft=4;spacingRight=4;overflow=hidden;points=[[0,0.5],[1,0.5]];portConstraint=eastwest;rotatable=0;whiteSpace=wrap;html=1;" parent="Qs3f1plYn783Y-EwiYJO-14" vertex="1">
          <mxGeometry y="150" width="140" height="30" as="geometry" />
        </mxCell>
        <mxCell id="Qs3f1plYn783Y-EwiYJO-17" value="targetPath" style="text;strokeColor=none;fillColor=none;align=left;verticalAlign=middle;spacingLeft=4;spacingRight=4;overflow=hidden;points=[[0,0.5],[1,0.5]];portConstraint=eastwest;rotatable=0;whiteSpace=wrap;html=1;" parent="Qs3f1plYn783Y-EwiYJO-14" vertex="1">
          <mxGeometry y="180" width="140" height="30" as="geometry" />
        </mxCell>
        <mxCell id="Qs3f1plYn783Y-EwiYJO-32" value="" style="endArrow=none;html=1;rounded=0;entryX=0;entryY=0.5;entryDx=0;entryDy=0;exitX=1;exitY=0.5;exitDx=0;exitDy=0;" parent="1" source="Qs3f1plYn783Y-EwiYJO-15" target="Qs3f1plYn783Y-EwiYJO-2" edge="1">
          <mxGeometry width="50" height="50" relative="1" as="geometry">
            <mxPoint x="240" y="317" as="sourcePoint" />
            <mxPoint x="290" y="267" as="targetPoint" />
          </mxGeometry>
        </mxCell>
        <mxCell id="Qs3f1plYn783Y-EwiYJO-72" value="included in" style="edgeLabel;html=1;align=center;verticalAlign=middle;resizable=0;points=[];" parent="Qs3f1plYn783Y-EwiYJO-32" vertex="1" connectable="0">
          <mxGeometry x="-0.0953" y="-2" relative="1" as="geometry">
            <mxPoint x="10" y="-2" as="offset" />
          </mxGeometry>
        </mxCell>
        <mxCell id="Qs3f1plYn783Y-EwiYJO-33" value="" style="endArrow=none;html=1;rounded=0;entryX=1;entryY=0.5;entryDx=0;entryDy=0;exitX=0;exitY=0.5;exitDx=0;exitDy=0;" parent="1" source="Qs3f1plYn783Y-EwiYJO-7" target="Qs3f1plYn783Y-EwiYJO-2" edge="1">
          <mxGeometry width="50" height="50" relative="1" as="geometry">
            <mxPoint x="520" y="307" as="sourcePoint" />
            <mxPoint x="570" y="257" as="targetPoint" />
          </mxGeometry>
        </mxCell>
        <mxCell id="Qs3f1plYn783Y-EwiYJO-73" value="provides" style="edgeLabel;html=1;align=center;verticalAlign=middle;resizable=0;points=[];" parent="Qs3f1plYn783Y-EwiYJO-33" vertex="1" connectable="0">
          <mxGeometry x="-0.0317" y="2" relative="1" as="geometry">
            <mxPoint y="-2" as="offset" />
          </mxGeometry>
        </mxCell>
        <mxCell id="Qs3f1plYn783Y-EwiYJO-38" value="User" style="swimlane;fontStyle=0;childLayout=stackLayout;horizontal=1;startSize=30;horizontalStack=0;resizeParent=1;resizeParentMax=0;resizeLast=0;collapsible=1;marginBottom=0;whiteSpace=wrap;html=1;" parent="1" vertex="1">
          <mxGeometry x="285" y="80" width="140" height="60" as="geometry" />
        </mxCell>
        <mxCell id="Qs3f1plYn783Y-EwiYJO-42" value="Modus" style="swimlane;fontStyle=0;childLayout=stackLayout;horizontal=1;startSize=30;horizontalStack=0;resizeParent=1;resizeParentMax=0;resizeLast=0;collapsible=1;marginBottom=0;whiteSpace=wrap;html=1;" parent="1" vertex="1">
          <mxGeometry x="481" y="397" width="140" height="60" as="geometry" />
        </mxCell>
        <mxCell id="Qs3f1plYn783Y-EwiYJO-45" value="Single" style="swimlane;fontStyle=0;childLayout=stackLayout;horizontal=1;startSize=30;horizontalStack=0;resizeParent=1;resizeParentMax=0;resizeLast=0;collapsible=1;marginBottom=0;whiteSpace=wrap;html=1;" parent="1" vertex="1">
          <mxGeometry x="403" y="530" width="140" height="60" as="geometry" />
        </mxCell>
        <mxCell id="Qs3f1plYn783Y-EwiYJO-46" value="Batch" style="swimlane;fontStyle=0;childLayout=stackLayout;horizontal=1;startSize=30;horizontalStack=0;resizeParent=1;resizeParentMax=0;resizeLast=0;collapsible=1;marginBottom=0;whiteSpace=wrap;html=1;" parent="1" vertex="1">
          <mxGeometry x="563" y="530" width="140" height="60" as="geometry" />
        </mxCell>
        <mxCell id="Qs3f1plYn783Y-EwiYJO-49" value="" style="endArrow=none;html=1;rounded=0;exitX=0.5;exitY=0;exitDx=0;exitDy=0;entryX=0.5;entryY=0;entryDx=0;entryDy=0;" parent="1" source="Qs3f1plYn783Y-EwiYJO-45" target="Qs3f1plYn783Y-EwiYJO-46" edge="1">
          <mxGeometry width="50" height="50" relative="1" as="geometry">
            <mxPoint x="443" y="540" as="sourcePoint" />
            <mxPoint x="613" y="500" as="targetPoint" />
            <Array as="points">
              <mxPoint x="473" y="500" />
              <mxPoint x="633" y="500" />
            </Array>
          </mxGeometry>
        </mxCell>
        <mxCell id="Qs3f1plYn783Y-EwiYJO-50" value="Procedure" style="swimlane;fontStyle=0;childLayout=stackLayout;horizontal=1;startSize=30;horizontalStack=0;resizeParent=1;resizeParentMax=0;resizeLast=0;collapsible=1;marginBottom=0;whiteSpace=wrap;html=1;" parent="1" vertex="1">
          <mxGeometry x="210" y="312" width="140" height="60" as="geometry" />
        </mxCell>
        <mxCell id="Qs3f1plYn783Y-EwiYJO-52" value="selectedAlgorithm" style="text;strokeColor=none;fillColor=none;align=left;verticalAlign=middle;spacingLeft=4;spacingRight=4;overflow=hidden;points=[[0,0.5],[1,0.5]];portConstraint=eastwest;rotatable=0;whiteSpace=wrap;html=1;" parent="Qs3f1plYn783Y-EwiYJO-50" vertex="1">
          <mxGeometry y="30" width="140" height="30" as="geometry" />
        </mxCell>
        <mxCell id="Qs3f1plYn783Y-EwiYJO-53" value="HoffmannOtsu" style="swimlane;fontStyle=0;childLayout=stackLayout;horizontal=1;startSize=30;horizontalStack=0;resizeParent=1;resizeParentMax=0;resizeLast=0;collapsible=1;marginBottom=0;whiteSpace=wrap;html=1;" parent="1" vertex="1">
          <mxGeometry x="132" y="450" width="140" height="60" as="geometry" />
        </mxCell>
        <mxCell id="Qs3f1plYn783Y-EwiYJO-54" value="HoffmannRenyi" style="swimlane;fontStyle=0;childLayout=stackLayout;horizontal=1;startSize=30;horizontalStack=0;resizeParent=1;resizeParentMax=0;resizeLast=0;collapsible=1;marginBottom=0;whiteSpace=wrap;html=1;" parent="1" vertex="1">
          <mxGeometry x="292" y="450" width="140" height="60" as="geometry" />
        </mxCell>
        <mxCell id="Qs3f1plYn783Y-EwiYJO-55" value="" style="endArrow=block;html=1;rounded=0;align=center;verticalAlign=bottom;endFill=0;labelBackgroundColor=none;endSize=8;entryX=0.5;entryY=1.033;entryDx=0;entryDy=0;entryPerimeter=0;" parent="1" target="Qs3f1plYn783Y-EwiYJO-52" edge="1">
          <mxGeometry relative="1" as="geometry">
            <mxPoint x="280" y="420" as="sourcePoint" />
            <mxPoint x="289" y="432" as="targetPoint" />
          </mxGeometry>
        </mxCell>
        <mxCell id="Qs3f1plYn783Y-EwiYJO-56" value="" style="resizable=0;html=1;align=center;verticalAlign=top;labelBackgroundColor=none;" parent="Qs3f1plYn783Y-EwiYJO-55" connectable="0" vertex="1">
          <mxGeometry relative="1" as="geometry">
            <mxPoint x="2" y="-32" as="offset" />
          </mxGeometry>
        </mxCell>
        <mxCell id="Qs3f1plYn783Y-EwiYJO-57" value="" style="endArrow=none;html=1;rounded=0;exitX=0.5;exitY=0;exitDx=0;exitDy=0;entryX=0.5;entryY=0;entryDx=0;entryDy=0;" parent="1" source="Qs3f1plYn783Y-EwiYJO-53" target="Qs3f1plYn783Y-EwiYJO-54" edge="1">
          <mxGeometry width="50" height="50" relative="1" as="geometry">
            <mxPoint x="172" y="460" as="sourcePoint" />
            <mxPoint x="342" y="420" as="targetPoint" />
            <Array as="points">
              <mxPoint x="202" y="420" />
              <mxPoint x="362" y="420" />
            </Array>
          </mxGeometry>
        </mxCell>
        <mxCell id="Qs3f1plYn783Y-EwiYJO-58" value="" style="endArrow=none;html=1;rounded=0;entryX=0;entryY=0.5;entryDx=0;entryDy=0;exitX=0.5;exitY=0;exitDx=0;exitDy=0;" parent="1" source="Qs3f1plYn783Y-EwiYJO-14" target="Qs3f1plYn783Y-EwiYJO-38" edge="1">
          <mxGeometry width="50" height="50" relative="1" as="geometry">
            <mxPoint x="400" y="250" as="sourcePoint" />
            <mxPoint x="450" y="200" as="targetPoint" />
            <Array as="points">
              <mxPoint x="120" y="110" />
            </Array>
          </mxGeometry>
        </mxCell>
        <mxCell id="Qs3f1plYn783Y-EwiYJO-61" value="select" style="edgeLabel;html=1;align=center;verticalAlign=middle;resizable=0;points=[];" parent="Qs3f1plYn783Y-EwiYJO-58" vertex="1" connectable="0">
          <mxGeometry x="0.5064" relative="1" as="geometry">
            <mxPoint x="-42" y="-1" as="offset" />
          </mxGeometry>
        </mxCell>
        <mxCell id="Qs3f1plYn783Y-EwiYJO-59" value="" style="endArrow=none;html=1;rounded=0;exitX=0.5;exitY=0;exitDx=0;exitDy=0;entryX=1;entryY=0.5;entryDx=0;entryDy=0;" parent="1" source="Qs3f1plYn783Y-EwiYJO-42" target="Qs3f1plYn783Y-EwiYJO-77" edge="1">
          <mxGeometry width="50" height="50" relative="1" as="geometry">
            <mxPoint x="270" y="300" as="sourcePoint" />
            <mxPoint x="440" y="280" as="targetPoint" />
            <Array as="points">
              <mxPoint x="550" y="242" />
            </Array>
          </mxGeometry>
        </mxCell>
        <mxCell id="Qs3f1plYn783Y-EwiYJO-75" value="includes" style="edgeLabel;html=1;align=center;verticalAlign=middle;resizable=0;points=[];rotation=-90;" parent="Qs3f1plYn783Y-EwiYJO-59" vertex="1" connectable="0">
          <mxGeometry x="0.0586" y="2" relative="1" as="geometry">
            <mxPoint y="34" as="offset" />
          </mxGeometry>
        </mxCell>
        <mxCell id="Qs3f1plYn783Y-EwiYJO-60" value="" style="endArrow=none;html=1;rounded=0;exitX=0.5;exitY=0;exitDx=0;exitDy=0;entryX=0;entryY=0.5;entryDx=0;entryDy=0;" parent="1" source="Qs3f1plYn783Y-EwiYJO-50" target="Qs3f1plYn783Y-EwiYJO-77" edge="1">
          <mxGeometry width="50" height="50" relative="1" as="geometry">
            <mxPoint x="259" y="310" as="sourcePoint" />
            <mxPoint x="409" y="349" as="targetPoint" />
            <Array as="points">
              <mxPoint x="280" y="242" />
            </Array>
          </mxGeometry>
        </mxCell>
        <mxCell id="Qs3f1plYn783Y-EwiYJO-78" value="includes" style="edgeLabel;html=1;align=center;verticalAlign=middle;resizable=0;points=[];rotation=-90;" parent="Qs3f1plYn783Y-EwiYJO-60" vertex="1" connectable="0">
          <mxGeometry x="-0.4347" y="1" relative="1" as="geometry">
            <mxPoint y="3" as="offset" />
          </mxGeometry>
        </mxCell>
        <mxCell id="Qs3f1plYn783Y-EwiYJO-79" value="3D Slicer" style="swimlane;fontStyle=0;childLayout=stackLayout;horizontal=1;startSize=30;horizontalStack=0;resizeParent=1;resizeParentMax=0;resizeLast=0;collapsible=1;marginBottom=0;whiteSpace=wrap;html=1;" parent="1" vertex="1">
          <mxGeometry x="571" y="80" width="140" height="60" as="geometry" />
        </mxCell>
        <mxCell id="Qs3f1plYn783Y-EwiYJO-80" value="" style="endArrow=none;html=1;rounded=0;entryX=0;entryY=0.5;entryDx=0;entryDy=0;exitX=0.75;exitY=0;exitDx=0;exitDy=0;" parent="1" source="Qs3f1plYn783Y-EwiYJO-1" target="Qs3f1plYn783Y-EwiYJO-79" edge="1">
          <mxGeometry width="50" height="50" relative="1" as="geometry">
            <mxPoint x="410" y="180" as="sourcePoint" />
            <mxPoint x="460" y="130" as="targetPoint" />
            <Array as="points">
              <mxPoint x="455" y="110" />
            </Array>
          </mxGeometry>
        </mxCell>
        <mxCell id="Qs3f1plYn783Y-EwiYJO-81" value="integrated in" style="edgeLabel;html=1;align=center;verticalAlign=middle;resizable=0;points=[];rotation=0;" parent="Qs3f1plYn783Y-EwiYJO-80" vertex="1" connectable="0">
          <mxGeometry x="-0.3768" relative="1" as="geometry">
            <mxPoint x="58" y="-4" as="offset" />
          </mxGeometry>
        </mxCell>
        <mxCell id="Qs3f1plYn783Y-EwiYJO-83" value="" style="endArrow=classic;html=1;rounded=0;" parent="1" edge="1">
          <mxGeometry width="50" height="50" relative="1" as="geometry">
            <mxPoint x="490" y="100" as="sourcePoint" />
            <mxPoint x="530" y="100" as="targetPoint" />
          </mxGeometry>
        </mxCell>
        <mxCell id="Qs3f1plYn783Y-EwiYJO-85" value="" style="endArrow=classic;html=1;rounded=0;" parent="1" edge="1">
          <mxGeometry width="50" height="50" relative="1" as="geometry">
            <mxPoint x="515" y="202" as="sourcePoint" />
            <mxPoint x="555" y="202" as="targetPoint" />
          </mxGeometry>
        </mxCell>
        <mxCell id="Qs3f1plYn783Y-EwiYJO-86" value="" style="endArrow=classic;html=1;rounded=0;" parent="1" edge="1">
          <mxGeometry width="50" height="50" relative="1" as="geometry">
            <mxPoint x="254" y="201" as="sourcePoint" />
            <mxPoint x="294" y="201" as="targetPoint" />
          </mxGeometry>
        </mxCell>
        <mxCell id="Qs3f1plYn783Y-EwiYJO-87" value="" style="endArrow=classic;html=1;rounded=0;" parent="1" edge="1">
          <mxGeometry width="50" height="50" relative="1" as="geometry">
            <mxPoint x="538" y="301" as="sourcePoint" />
            <mxPoint x="538" y="331" as="targetPoint" />
          </mxGeometry>
        </mxCell>
        <mxCell id="Qs3f1plYn783Y-EwiYJO-88" value="" style="endArrow=classic;html=1;rounded=0;" parent="1" edge="1">
          <mxGeometry width="50" height="50" relative="1" as="geometry">
            <mxPoint x="269" y="260" as="sourcePoint" />
            <mxPoint x="269" y="290" as="targetPoint" />
          </mxGeometry>
        </mxCell>
        <mxCell id="Qs3f1plYn783Y-EwiYJO-90" value="" style="endArrow=classic;html=1;rounded=0;" parent="1" edge="1">
          <mxGeometry width="50" height="50" relative="1" as="geometry">
            <mxPoint x="207" y="99.00000000000001" as="sourcePoint" />
            <mxPoint x="167" y="99.48" as="targetPoint" />
          </mxGeometry>
        </mxCell>
        <mxCell id="Qs3f1plYn783Y-EwiYJO-91" value="" style="endArrow=block;html=1;rounded=0;align=center;verticalAlign=bottom;endFill=0;labelBackgroundColor=none;endSize=8;entryX=0.5;entryY=1.033;entryDx=0;entryDy=0;entryPerimeter=0;" parent="1" edge="1">
          <mxGeometry relative="1" as="geometry">
            <mxPoint x="551" y="500" as="sourcePoint" />
            <mxPoint x="550.76" y="457" as="targetPoint" />
          </mxGeometry>
        </mxCell>
        <mxCell id="Qs3f1plYn783Y-EwiYJO-92" value="" style="resizable=0;html=1;align=center;verticalAlign=top;labelBackgroundColor=none;" parent="Qs3f1plYn783Y-EwiYJO-91" connectable="0" vertex="1">
          <mxGeometry relative="1" as="geometry">
            <mxPoint x="2" y="-32" as="offset" />
          </mxGeometry>
        </mxCell>
        <mxCell id="9wCAvPdf0HuMmX5RFQR_-21" value="DenthalWidget" style="swimlane;fontStyle=1;align=center;verticalAlign=top;childLayout=stackLayout;horizontal=1;startSize=26;horizontalStack=0;resizeParent=1;resizeParentMax=0;resizeLast=0;collapsible=1;marginBottom=0;whiteSpace=wrap;html=1;" vertex="1" parent="1">
          <mxGeometry x="315" y="660" width="160" height="86" as="geometry" />
        </mxCell>
        <mxCell id="9wCAvPdf0HuMmX5RFQR_-22" value="+ field: type" style="text;strokeColor=none;fillColor=none;align=left;verticalAlign=top;spacingLeft=4;spacingRight=4;overflow=hidden;rotatable=0;points=[[0,0.5],[1,0.5]];portConstraint=eastwest;whiteSpace=wrap;html=1;" vertex="1" parent="9wCAvPdf0HuMmX5RFQR_-21">
          <mxGeometry y="26" width="160" height="26" as="geometry" />
        </mxCell>
        <mxCell id="9wCAvPdf0HuMmX5RFQR_-23" value="" style="line;strokeWidth=1;fillColor=none;align=left;verticalAlign=middle;spacingTop=-1;spacingLeft=3;spacingRight=3;rotatable=0;labelPosition=right;points=[];portConstraint=eastwest;strokeColor=inherit;" vertex="1" parent="9wCAvPdf0HuMmX5RFQR_-21">
          <mxGeometry y="52" width="160" height="8" as="geometry" />
        </mxCell>
        <mxCell id="9wCAvPdf0HuMmX5RFQR_-24" value="+ method(type): type" style="text;strokeColor=none;fillColor=none;align=left;verticalAlign=top;spacingLeft=4;spacingRight=4;overflow=hidden;rotatable=0;points=[[0,0.5],[1,0.5]];portConstraint=eastwest;whiteSpace=wrap;html=1;" vertex="1" parent="9wCAvPdf0HuMmX5RFQR_-21">
          <mxGeometry y="60" width="160" height="26" as="geometry" />
        </mxCell>
        <mxCell id="9wCAvPdf0HuMmX5RFQR_-25" value="DenthalLogic" style="swimlane;fontStyle=1;align=center;verticalAlign=top;childLayout=stackLayout;horizontal=1;startSize=26;horizontalStack=0;resizeParent=1;resizeParentMax=0;resizeLast=0;collapsible=1;marginBottom=0;whiteSpace=wrap;html=1;" vertex="1" parent="1">
          <mxGeometry x="276.5" y="802" width="237.5" height="190" as="geometry" />
        </mxCell>
        <mxCell id="9wCAvPdf0HuMmX5RFQR_-26" value="- availableAlgorithms: list[string]" style="text;strokeColor=none;fillColor=none;align=left;verticalAlign=top;spacingLeft=4;spacingRight=4;overflow=hidden;rotatable=0;points=[[0,0.5],[1,0.5]];portConstraint=eastwest;whiteSpace=wrap;html=1;" vertex="1" parent="9wCAvPdf0HuMmX5RFQR_-25">
          <mxGeometry y="26" width="237.5" height="26" as="geometry" />
        </mxCell>
        <mxCell id="9wCAvPdf0HuMmX5RFQR_-63" value="+ selectedAlgorithm: any" style="text;strokeColor=none;fillColor=none;align=left;verticalAlign=top;spacingLeft=4;spacingRight=4;overflow=hidden;rotatable=0;points=[[0,0.5],[1,0.5]];portConstraint=eastwest;whiteSpace=wrap;html=1;" vertex="1" parent="9wCAvPdf0HuMmX5RFQR_-25">
          <mxGeometry y="52" width="237.5" height="26" as="geometry" />
        </mxCell>
        <mxCell id="9wCAvPdf0HuMmX5RFQR_-27" value="" style="line;strokeWidth=1;fillColor=none;align=left;verticalAlign=middle;spacingTop=-1;spacingLeft=3;spacingRight=3;rotatable=0;labelPosition=right;points=[];portConstraint=eastwest;strokeColor=inherit;" vertex="1" parent="9wCAvPdf0HuMmX5RFQR_-25">
          <mxGeometry y="78" width="237.5" height="8" as="geometry" />
        </mxCell>
        <mxCell id="9wCAvPdf0HuMmX5RFQR_-28" value="+ DenthalLogic()" style="text;strokeColor=none;fillColor=none;align=left;verticalAlign=top;spacingLeft=4;spacingRight=4;overflow=hidden;rotatable=0;points=[[0,0.5],[1,0.5]];portConstraint=eastwest;whiteSpace=wrap;html=1;fontStyle=0" vertex="1" parent="9wCAvPdf0HuMmX5RFQR_-25">
          <mxGeometry y="86" width="237.5" height="26" as="geometry" />
        </mxCell>
        <mxCell id="9wCAvPdf0HuMmX5RFQR_-66" value="+ getParameterNode(): ParameterNode" style="text;strokeColor=none;fillColor=none;align=left;verticalAlign=top;spacingLeft=4;spacingRight=4;overflow=hidden;rotatable=0;points=[[0,0.5],[1,0.5]];portConstraint=eastwest;whiteSpace=wrap;html=1;" vertex="1" parent="9wCAvPdf0HuMmX5RFQR_-25">
          <mxGeometry y="112" width="237.5" height="26" as="geometry" />
        </mxCell>
        <mxCell id="9wCAvPdf0HuMmX5RFQR_-65" value="+ getAlgorithmsByName(): list[string]" style="text;strokeColor=none;fillColor=none;align=left;verticalAlign=top;spacingLeft=4;spacingRight=4;overflow=hidden;rotatable=0;points=[[0,0.5],[1,0.5]];portConstraint=eastwest;whiteSpace=wrap;html=1;fontStyle=4" vertex="1" parent="9wCAvPdf0HuMmX5RFQR_-25">
          <mxGeometry y="138" width="237.5" height="26" as="geometry" />
        </mxCell>
        <mxCell id="9wCAvPdf0HuMmX5RFQR_-64" value="+ method(type): type" style="text;strokeColor=none;fillColor=none;align=left;verticalAlign=top;spacingLeft=4;spacingRight=4;overflow=hidden;rotatable=0;points=[[0,0.5],[1,0.5]];portConstraint=eastwest;whiteSpace=wrap;html=1;" vertex="1" parent="9wCAvPdf0HuMmX5RFQR_-25">
          <mxGeometry y="164" width="237.5" height="26" as="geometry" />
        </mxCell>
        <mxCell id="9wCAvPdf0HuMmX5RFQR_-29" value="Otsu" style="swimlane;fontStyle=1;align=center;verticalAlign=top;childLayout=stackLayout;horizontal=1;startSize=26;horizontalStack=0;resizeParent=1;resizeParentMax=0;resizeLast=0;collapsible=1;marginBottom=0;whiteSpace=wrap;html=1;" vertex="1" parent="1">
          <mxGeometry x="105" y="1060" width="279" height="86" as="geometry" />
        </mxCell>
        <mxCell id="9wCAvPdf0HuMmX5RFQR_-31" value="" style="line;strokeWidth=1;fillColor=none;align=left;verticalAlign=middle;spacingTop=-1;spacingLeft=3;spacingRight=3;rotatable=0;labelPosition=right;points=[];portConstraint=eastwest;strokeColor=inherit;" vertex="1" parent="9wCAvPdf0HuMmX5RFQR_-29">
          <mxGeometry y="26" width="279" height="8" as="geometry" />
        </mxCell>
        <mxCell id="9wCAvPdf0HuMmX5RFQR_-39" value="+ execute(param: ParameterNode): None" style="text;strokeColor=none;fillColor=none;align=left;verticalAlign=top;spacingLeft=4;spacingRight=4;overflow=hidden;rotatable=0;points=[[0,0.5],[1,0.5]];portConstraint=eastwest;whiteSpace=wrap;html=1;" vertex="1" parent="9wCAvPdf0HuMmX5RFQR_-29">
          <mxGeometry y="34" width="279" height="26" as="geometry" />
        </mxCell>
        <mxCell id="9wCAvPdf0HuMmX5RFQR_-32" value="+ executeAsBatch(param: ParameterNode): None" style="text;strokeColor=none;fillColor=none;align=left;verticalAlign=top;spacingLeft=4;spacingRight=4;overflow=hidden;rotatable=0;points=[[0,0.5],[1,0.5]];portConstraint=eastwest;whiteSpace=wrap;html=1;" vertex="1" parent="9wCAvPdf0HuMmX5RFQR_-29">
          <mxGeometry y="60" width="279" height="26" as="geometry" />
        </mxCell>
        <mxCell id="9wCAvPdf0HuMmX5RFQR_-33" value="Renyi" style="swimlane;fontStyle=1;align=center;verticalAlign=top;childLayout=stackLayout;horizontal=1;startSize=26;horizontalStack=0;resizeParent=1;resizeParentMax=0;resizeLast=0;collapsible=1;marginBottom=0;whiteSpace=wrap;html=1;" vertex="1" parent="1">
          <mxGeometry x="409" y="1060" width="276" height="86" as="geometry" />
        </mxCell>
        <mxCell id="9wCAvPdf0HuMmX5RFQR_-35" value="" style="line;strokeWidth=1;fillColor=none;align=left;verticalAlign=middle;spacingTop=-1;spacingLeft=3;spacingRight=3;rotatable=0;labelPosition=right;points=[];portConstraint=eastwest;strokeColor=inherit;" vertex="1" parent="9wCAvPdf0HuMmX5RFQR_-33">
          <mxGeometry y="26" width="276" height="8" as="geometry" />
        </mxCell>
        <mxCell id="9wCAvPdf0HuMmX5RFQR_-36" value="+ execute(param: ParameterNode): None" style="text;strokeColor=none;fillColor=none;align=left;verticalAlign=top;spacingLeft=4;spacingRight=4;overflow=hidden;rotatable=0;points=[[0,0.5],[1,0.5]];portConstraint=eastwest;whiteSpace=wrap;html=1;" vertex="1" parent="9wCAvPdf0HuMmX5RFQR_-33">
          <mxGeometry y="34" width="276" height="26" as="geometry" />
        </mxCell>
        <mxCell id="9wCAvPdf0HuMmX5RFQR_-40" value="+ executeAsBatch(param: ParameterNode): None" style="text;strokeColor=none;fillColor=none;align=left;verticalAlign=top;spacingLeft=4;spacingRight=4;overflow=hidden;rotatable=0;points=[[0,0.5],[1,0.5]];portConstraint=eastwest;whiteSpace=wrap;html=1;" vertex="1" parent="9wCAvPdf0HuMmX5RFQR_-33">
          <mxGeometry y="60" width="276" height="26" as="geometry" />
        </mxCell>
        <mxCell id="9wCAvPdf0HuMmX5RFQR_-37" value="" style="endArrow=block;endFill=0;endSize=12;html=1;rounded=0;entryX=0.5;entryY=1;entryDx=0;entryDy=0;" edge="1" parent="1" target="9wCAvPdf0HuMmX5RFQR_-25">
          <mxGeometry width="160" relative="1" as="geometry">
            <mxPoint x="395" y="1030" as="sourcePoint" />
            <mxPoint x="485" y="1020" as="targetPoint" />
          </mxGeometry>
        </mxCell>
        <mxCell id="9wCAvPdf0HuMmX5RFQR_-38" value="" style="endArrow=none;html=1;rounded=0;exitX=0.5;exitY=0;exitDx=0;exitDy=0;entryX=0.5;entryY=0;entryDx=0;entryDy=0;" edge="1" parent="1" source="9wCAvPdf0HuMmX5RFQR_-29" target="9wCAvPdf0HuMmX5RFQR_-33">
          <mxGeometry width="50" height="50" relative="1" as="geometry">
            <mxPoint x="384" y="1060" as="sourcePoint" />
            <mxPoint x="434" y="1010" as="targetPoint" />
            <Array as="points">
              <mxPoint x="245" y="1030" />
              <mxPoint x="547" y="1030" />
            </Array>
          </mxGeometry>
        </mxCell>
        <mxCell id="9wCAvPdf0HuMmX5RFQR_-45" value="ParameterNode" style="swimlane;fontStyle=1;align=center;verticalAlign=top;childLayout=stackLayout;horizontal=1;startSize=26;horizontalStack=0;resizeParent=1;resizeParentMax=0;resizeLast=0;collapsible=1;marginBottom=0;whiteSpace=wrap;html=1;" vertex="1" parent="1">
          <mxGeometry x="30" y="750" width="160" height="190" as="geometry" />
        </mxCell>
        <mxCell id="9wCAvPdf0HuMmX5RFQR_-46" value="+ field: type" style="text;strokeColor=none;fillColor=none;align=left;verticalAlign=top;spacingLeft=4;spacingRight=4;overflow=hidden;rotatable=0;points=[[0,0.5],[1,0.5]];portConstraint=eastwest;whiteSpace=wrap;html=1;" vertex="1" parent="9wCAvPdf0HuMmX5RFQR_-45">
          <mxGeometry y="26" width="160" height="26" as="geometry" />
        </mxCell>
        <mxCell id="9wCAvPdf0HuMmX5RFQR_-59" value="+ field: type" style="text;strokeColor=none;fillColor=none;align=left;verticalAlign=top;spacingLeft=4;spacingRight=4;overflow=hidden;rotatable=0;points=[[0,0.5],[1,0.5]];portConstraint=eastwest;whiteSpace=wrap;html=1;" vertex="1" parent="9wCAvPdf0HuMmX5RFQR_-45">
          <mxGeometry y="52" width="160" height="26" as="geometry" />
        </mxCell>
        <mxCell id="9wCAvPdf0HuMmX5RFQR_-62" value="+ field: type" style="text;strokeColor=none;fillColor=none;align=left;verticalAlign=top;spacingLeft=4;spacingRight=4;overflow=hidden;rotatable=0;points=[[0,0.5],[1,0.5]];portConstraint=eastwest;whiteSpace=wrap;html=1;" vertex="1" parent="9wCAvPdf0HuMmX5RFQR_-45">
          <mxGeometry y="78" width="160" height="26" as="geometry" />
        </mxCell>
        <mxCell id="9wCAvPdf0HuMmX5RFQR_-61" value="+ field: type" style="text;strokeColor=none;fillColor=none;align=left;verticalAlign=top;spacingLeft=4;spacingRight=4;overflow=hidden;rotatable=0;points=[[0,0.5],[1,0.5]];portConstraint=eastwest;whiteSpace=wrap;html=1;" vertex="1" parent="9wCAvPdf0HuMmX5RFQR_-45">
          <mxGeometry y="104" width="160" height="26" as="geometry" />
        </mxCell>
        <mxCell id="9wCAvPdf0HuMmX5RFQR_-60" value="+ field: type" style="text;strokeColor=none;fillColor=none;align=left;verticalAlign=top;spacingLeft=4;spacingRight=4;overflow=hidden;rotatable=0;points=[[0,0.5],[1,0.5]];portConstraint=eastwest;whiteSpace=wrap;html=1;" vertex="1" parent="9wCAvPdf0HuMmX5RFQR_-45">
          <mxGeometry y="130" width="160" height="26" as="geometry" />
        </mxCell>
        <mxCell id="9wCAvPdf0HuMmX5RFQR_-58" value="+ field: type" style="text;strokeColor=none;fillColor=none;align=left;verticalAlign=top;spacingLeft=4;spacingRight=4;overflow=hidden;rotatable=0;points=[[0,0.5],[1,0.5]];portConstraint=eastwest;whiteSpace=wrap;html=1;" vertex="1" parent="9wCAvPdf0HuMmX5RFQR_-45">
          <mxGeometry y="156" width="160" height="26" as="geometry" />
        </mxCell>
        <mxCell id="9wCAvPdf0HuMmX5RFQR_-47" value="" style="line;strokeWidth=1;fillColor=none;align=left;verticalAlign=middle;spacingTop=-1;spacingLeft=3;spacingRight=3;rotatable=0;labelPosition=right;points=[];portConstraint=eastwest;strokeColor=inherit;" vertex="1" parent="9wCAvPdf0HuMmX5RFQR_-45">
          <mxGeometry y="182" width="160" height="8" as="geometry" />
        </mxCell>
        <mxCell id="9wCAvPdf0HuMmX5RFQR_-49" value="Denthal" style="swimlane;fontStyle=1;align=center;verticalAlign=top;childLayout=stackLayout;horizontal=1;startSize=26;horizontalStack=0;resizeParent=1;resizeParentMax=0;resizeLast=0;collapsible=1;marginBottom=0;whiteSpace=wrap;html=1;" vertex="1" parent="1">
          <mxGeometry x="600" y="750" width="160" height="190" as="geometry" />
        </mxCell>
        <mxCell id="9wCAvPdf0HuMmX5RFQR_-50" value="+ field: type" style="text;strokeColor=none;fillColor=none;align=left;verticalAlign=top;spacingLeft=4;spacingRight=4;overflow=hidden;rotatable=0;points=[[0,0.5],[1,0.5]];portConstraint=eastwest;whiteSpace=wrap;html=1;" vertex="1" parent="9wCAvPdf0HuMmX5RFQR_-49">
          <mxGeometry y="26" width="160" height="26" as="geometry" />
        </mxCell>
        <mxCell id="9wCAvPdf0HuMmX5RFQR_-54" value="+ field: type" style="text;strokeColor=none;fillColor=none;align=left;verticalAlign=top;spacingLeft=4;spacingRight=4;overflow=hidden;rotatable=0;points=[[0,0.5],[1,0.5]];portConstraint=eastwest;whiteSpace=wrap;html=1;" vertex="1" parent="9wCAvPdf0HuMmX5RFQR_-49">
          <mxGeometry y="52" width="160" height="26" as="geometry" />
        </mxCell>
        <mxCell id="9wCAvPdf0HuMmX5RFQR_-57" value="+ field: type" style="text;strokeColor=none;fillColor=none;align=left;verticalAlign=top;spacingLeft=4;spacingRight=4;overflow=hidden;rotatable=0;points=[[0,0.5],[1,0.5]];portConstraint=eastwest;whiteSpace=wrap;html=1;" vertex="1" parent="9wCAvPdf0HuMmX5RFQR_-49">
          <mxGeometry y="78" width="160" height="26" as="geometry" />
        </mxCell>
        <mxCell id="9wCAvPdf0HuMmX5RFQR_-56" value="+ field: type" style="text;strokeColor=none;fillColor=none;align=left;verticalAlign=top;spacingLeft=4;spacingRight=4;overflow=hidden;rotatable=0;points=[[0,0.5],[1,0.5]];portConstraint=eastwest;whiteSpace=wrap;html=1;" vertex="1" parent="9wCAvPdf0HuMmX5RFQR_-49">
          <mxGeometry y="104" width="160" height="26" as="geometry" />
        </mxCell>
        <mxCell id="9wCAvPdf0HuMmX5RFQR_-55" value="+ field: type" style="text;strokeColor=none;fillColor=none;align=left;verticalAlign=top;spacingLeft=4;spacingRight=4;overflow=hidden;rotatable=0;points=[[0,0.5],[1,0.5]];portConstraint=eastwest;whiteSpace=wrap;html=1;" vertex="1" parent="9wCAvPdf0HuMmX5RFQR_-49">
          <mxGeometry y="130" width="160" height="26" as="geometry" />
        </mxCell>
        <mxCell id="9wCAvPdf0HuMmX5RFQR_-53" value="+ field: type" style="text;strokeColor=none;fillColor=none;align=left;verticalAlign=top;spacingLeft=4;spacingRight=4;overflow=hidden;rotatable=0;points=[[0,0.5],[1,0.5]];portConstraint=eastwest;whiteSpace=wrap;html=1;" vertex="1" parent="9wCAvPdf0HuMmX5RFQR_-49">
          <mxGeometry y="156" width="160" height="26" as="geometry" />
        </mxCell>
        <mxCell id="9wCAvPdf0HuMmX5RFQR_-51" value="" style="line;strokeWidth=1;fillColor=none;align=left;verticalAlign=middle;spacingTop=-1;spacingLeft=3;spacingRight=3;rotatable=0;labelPosition=right;points=[];portConstraint=eastwest;strokeColor=inherit;" vertex="1" parent="9wCAvPdf0HuMmX5RFQR_-49">
          <mxGeometry y="182" width="160" height="8" as="geometry" />
        </mxCell>
      </root>
    </mxGraphModel>
  </diagram>
</mxfile>
